# xmcd
#
# Track frame offsets:
# 150
# 15600
# 35060
# 48715
# 66800
# 83365
# 98800
# 117915
# 131805
# 147535
# 164140
# 182140
# 194165
# 207845
# 224295
# 243510
#
# Disc length: 3404 seconds
#
#
# Revision: 0
# Processed by: cddbd v1.4PL0 Copyright (c) Steve Scherf et al.
# Submitted via: FreeRIP 2.35 
#
DISCID=f90d4a10
DTITLE=Formosa - Coletania
DYEAR=2000
DGENRE=evangelica
TTITLE0=Nome de poder
TTITLE1=Amigo
TTITLE2=Regresso
TTITLE3=Vem ao pai
TTITLE4=Vem pra Jesus
TTITLE5=As pedras
TTITLE6=Jesus e a solucao
TTITLE7=Andava triste
TTITLE8=Ha um lugar
TTITLE9=Ferido de Deus
TTITLE10=Ajuda-me
TTITLE11=Ha um poder
TTITLE12=Para ser senhor
TTITLE13=Ah se eu pudesse
TTITLE14=Coracao Triste
TTITLE15=Eu preciso de Jesus
EXTD=
EXTT0=
EXTT1=
EXTT2=
EXTT3=
EXTT4=
EXTT5=
EXTT6=
EXTT7=
EXTT8=
EXTT9=
EXTT10=
EXTT11=
EXTT12=
EXTT13=
EXTT14=
EXTT15=
PLAYORDER=
